<?xml version="1.0" encoding="UTF-8"?>
<svg id="Layer_2" data-name="Layer 2" xmlns="http://www.w3.org/2000/svg" viewBox="0 0 495.1 207.52">
  <defs>
    <style>
      .cls-1 {
        letter-spacing: .31em;
      }

      .cls-2 {
        letter-spacing: .03em;
      }

      .cls-3 {
        letter-spacing: .03em;
      }

      .cls-4 {
        fill: #c9a977;
      }

      .cls-5 {
        letter-spacing: .02em;
      }

      .cls-6 {
        letter-spacing: .3em;
      }

      .cls-7 {
        letter-spacing: .02em;
      }

      .cls-8 {
        font-size: 20.08px;
      }

      .cls-8, .cls-9 {
        fill: #f7f7f7;
        font-family: Roboto-Medium, Roboto;
        font-weight: 500;
        isolation: isolate;
      }

      .cls-10 {
        letter-spacing: .02em;
      }

      .cls-9 {
        font-size: 64.41px;
      }
    </style>
  </defs>
  <g id="HavenCrestLogo">
    <g>
      <path class="cls-4" d="m250.3,55.2h-18.5c-.1.5-.3,1.1-.3,1.6v13c0,1.1.4,1.7,1.6,1.6.5-.1,1,0,1.5,0,3.4,0,3.6.3,2.8,3.8h-16.4v-3.8c1.3,0,2.5-.1,3.7,0,1.5.1,2-.5,2-2-.1-7.8,0-15.6,0-23.5v-8.8q0-2.5-2.6-2.5h-2.9c-.1-.3-.3-.4-.3-.6q-.3-3.3,2.9-3.3h11.4q2.5,0,2.4,2.6c0,.4-.1.7-.1,1.3h-5.8v15.9h12.6c1.9,0,4.5.5,5.6-.6,1-.9.4-3.6.4-5.4.1-2.4.1-4.8.1-7.1,0-.8-.1-1.7-.2-2.7h-5.7c-.1-.4-.2-.5-.2-.7-.3-3.1-.3-3.2,2.9-3.2h13c.2,0,.4.1.7.1v3.6h-5.5c-.1.8-.1,1.5-.1,2.1v32.8c0,1.5.4,2.1,2,2,1.2-.1,2.4,0,3.7,0,.1.7.1,1.2.2,1.6.2,1.7-.4,2.4-2.2,2.3-4.3-.1-8.6-.1-12.8,0-1.5,0-1.7-.7-1.7-1.9s0-2.1,1.7-2.1q4.4-.1,4.3-4.6c-.2-3.7-.2-7.5-.2-11.5Z"/>
      <path class="cls-4" d="m258.3,110.4c-7.8,7.6-25.9,8.1-35,.1,3.6-2.4,7.3-4.8,10.9-7.3,1.9-1.2,3.7-2.6,5.7-3.7.6-.3,1.7-.4,2.3-.1,2.3,1.3,4.6,2.8,6.8,4.3,3.1,2.2,6.1,4.4,9.3,6.7Zm-27.3-.3c0,.2,0,.5-.1.7,1.2.6,2.4,1.5,3.7,1.7,3.1.4,6.3.5,9.5.4,1.8-.1,3.7-.6,5.5-1.3,1.9-.8,1.9-1.6.2-2.8-2.6-1.9-5.1-3.7-7.8-5.5-.4-.3-1.4-.2-1.9.1-2.3,1.5-4.6,3.1-6.8,4.7-.8.6-1.6,1.3-2.3,2Z"/>
      <path class="cls-4" d="m268.9,77.8c-2.7,7.2-7.9,12.5-14.1,17-1.1.8-2.3,1.4-3.4,2.2-.4.3-1.1,1.1-.9,1.4.2.5.8,1.2,1.4,1.3,1.3.3,2.7.4,4,.3,6.4-.2,12.6-1.5,18.5-3.8.4-.1.8-.3,1.3-.4-5.9,6.7-20.4,11.3-33,2.3,4.6-2.8,9.6-5.4,13.9-8.8,4.5-3.5,8.3-7.7,12.3-11.5Z"/>
      <path class="cls-4" d="m214.8,80.1c1.1.9,2.3,1.7,3.3,2.7,6.1,6.5,13.4,11.2,21.4,14.7-6.5,5.2-13.9,6.4-21.9,4.7-4.1-.9-7.6-3-10.8-5.6.1-.2.2-.3.2-.5,3.1.9,6.1,2.1,9.2,2.5,4.2.6,8.5.7,12.7,1,.2,0,.5,0,.7-.1.7-.4,1.3-.8,1.9-1.2-.5-.6-.8-1.3-1.4-1.7-4.2-2.4-8-5.4-11.2-9.1-1.7-2.1-4.1-4.2-4.1-7.4,0-.1,0,0,0,0Z"/>
      <path class="cls-4" d="m210.7,107.3h-43.5c-1.5,0-2.6.2-3.3,1.8-.8,1.8-3.1,2.5-5,2.1-2-.5-3.3-2.1-3.3-4.3,0-1.1,0-2.2.3-3.2.5-1.7,1.7-2.8,3.6-2.9,2.1-.2,3.9.3,4.6,2.4.5,1.5,1.4,1.7,2.8,1.7,11.9,0,23.8,0,35.7-.1,2.8,0,5.4.5,8.1,2.5Zm-48-1.4c0-1.9-1-3.4-2.4-3.3-1.5,0-2.7,1.5-2.8,3.3,0,2,1,3.3,2.6,3.3s2.5-1.2,2.6-3.3Z"/>
      <path class="cls-4" d="m271.4,107.3c2.3-1.6,4.4-2.5,7-2.5,12.2.1,24.3,0,36.5,0,1.5,0,2.5-.2,3.1-1.8.8-1.9,2.5-2.5,4.5-2.3,1.9.2,3.2,1.2,3.5,3,.3,1.7.3,3.5-.2,5.1-.5,1.7-2.2,2.4-4,2.4s-3.4-.8-4-2.4c-.5-1.5-1.4-1.5-2.6-1.5h-42.2c-.4,0-.8,0-1.6,0Zm53-1.3c0-2-1-3.5-2.5-3.4-1.4,0-2.5,1.5-2.6,3.4,0,1.9,1.1,3.3,2.6,3.2,1.6,0,2.5-1.2,2.5-3.2Z"/>
      <path class="cls-4" d="m223.6,95.2c-3.5,1.8-6.9,1.4-10.2.5-8.4-2.5-14.4-8-18.6-15.5-1.2-2.1-2-4.4-2.8-6.7,2.4,3.1,4.7,6.3,7.3,9.2,1.7,1.9,3.9,3.5,6,5.1,3,2.3,6.2,4.1,10,4.8,1,.2,2.1.5,2.9.2,2.5-1.2,3.7.7,5.4,2.4Z"/>
      <path class="cls-4" d="m206.9,57.9c-1.5,4.4-3,8.8-4.6,13.2-.6,1.5-1.9,1.7-3.3.7-2.7-1.8-3.4-4.6-2.1-7.6.9-2,1.3-4.2,2.3-6.1,1.7-3.3,4.6-5.5,7.9-7.1.7-.3,1.5-.4,2.3-.6.1.2.3.4.4.6-1,1-1.8,2.1-2.9,3.1-3.6,3.2-6.1,7.1-7.8,11.5-.5,1.2-.6,2.3.8,3.6,1.6-4.3,2.8-8.7,6.5-11.6.2.2.4.3.5.3Z"/>
      <path class="cls-4" d="m275.2,57.2c3.9,3.1,5.3,7.5,6.8,12,1.6-1.4,1.4-2.9.8-4.3-1.9-4.1-4.4-7.7-7.8-10.7-1-.9-1.9-2-2.8-3,.1-.2.2-.4.3-.6,1,.3,2.2.3,3.1.8,4.3,2.5,7.9,5.7,9,11,.1.5.2,1,.5,1.4,1.8,2.9.3,5.1-1.4,7.3-1.6,2-3.6,1.7-4.4-.7-1.2-3.6-2.3-7.3-3.4-11-.2-.6-.4-1.3-.7-2.2Z"/>
      <path class="cls-4" d="m258.2,95.1c1.5-1.2,2.7-2.1,3.9-3.1,1.5,1.7,3.3.9,5,.5,4.7-1,8.8-3.4,12.1-6.8,3.4-3.4,6.5-7.3,9.7-10.9.2-.2.4-.5.6-.7.2.1.3.2.5.3-1.2,2.3-2.2,4.7-3.6,6.9-4.5,7.3-10.6,12.6-19.1,14.6-2.2.5-4.6.3-6.8.2-.7.1-1.3-.5-2.3-1Z"/>
      <path class="cls-4" d="m273.4,58.1c3.7,10.1,3.1,19.7-2.8,28.8-1.2,1.9-2.7,3.7-5,4.3-.7.2-1.4.1-2.4-.1,9.4-9.3,11.1-20.7,10.2-33Z"/>
      <path class="cls-4" d="m218.8,90.7c-2.1,1-3.7.3-5.1-1-2.8-2.5-4.6-5.7-5.7-9.3-2.2-7-2.5-14,0-21,.1-.2.2-.4.5-.6-.8,12,1.3,23.1,10.3,31.9Z"/>
      <path class="cls-4" d="m252.5,10.7c1.2.4,2.4.7,3.5,1.2,5.5,2.6,9.5,6.4,10.3,12.8.3,2.7,2,4.6,4.2,6.1,1.2.8,2.3,1.6,3.4,2.5.4.3.8,1.3.6,1.4-.4.4-1.2.8-1.7.8-.9-.1-1.9-.4-2.7-1-3.8-2.6-6.5-5.9-7-10.6-.3-2.8-1.5-5.1-3.7-6.9s-4.4-3.5-6.6-5.3c-.2-.2-.4-.4-.5-.7.1,0,.1-.1.2-.3Z"/>
      <path class="cls-4" d="m230.3,11.3c-.9.7-1.8,1.4-2.7,2-1.6,1.3-3.3,2.5-4.9,3.8-2.5,1.9-3.4,4.7-3.8,7.6-.7,4.6-3.5,7.6-7.3,10-.4.3-.9.6-1.3.5-.7-.1-1.5-.4-2.2-.6.3-.6.5-1.3,1-1.8.9-.9,2-1.5,3.1-2.3,2.1-1.5,3.4-3.4,3.7-6,.9-6.2,7.2-12.6,13.3-13.6.3-.1.7,0,1,0,0,.2,0,.3.1.4Z"/>
      <path class="cls-4" d="m189.6,57.7c2.5,4.6,4.7,9.4,7.6,13.6,2.9,4.1,6.6,7.7,10.1,11.8-2.4.8-3.7-.3-5-1.2-4.2-3-7.1-7.1-9.4-11.7-1.9-4-2.9-8.2-3.3-12.5Z"/>
      <path class="cls-4" d="m292,58.4c-.7,9.7-4.9,17.6-12.6,23.5-2.1,1.6-2.6,1.7-4.7,1.1.7-.9,1.2-1.9,2-2.6,6.8-5.8,11.3-13.2,14.9-21.2.1-.2.3-.5.4-.8Z"/>
      <path class="cls-4" d="m281.9,51.6c-.2-1.2-.5-2.1-.6-3.1-.4-3.5-2.4-5.8-5.4-7.3-1.9-1-4.1-1.5-6.1-2.3-1.4-.5-2.8-1-4.2-1.5v-.5c.4-.2.9-.4,1.3-.5,5.4-1.5,14.5,2.2,16.2,8,.7,2.5,1.7,5-1.2,7.2Z"/>
      <path class="cls-4" d="m216.5,37.6c-1.8.6-3.5,1.3-5.3,1.7-3.8.8-7.2,2.3-9.3,5.8-.4.7-.7,1.5-.9,2.4-.3,1.4-.5,2.8-.8,4.5-1.7-1.5-2.5-2.8-2-4.8,1.8-7.2,9.2-12.2,16.4-11,.6.1,1.2.5,1.8.7,0,.3,0,.5.1.7Z"/>
      <path class="cls-4" d="m45.9,146.6H1.9c-.4,0-.9,0-1.3-.1-.2-.1-.4-.4-.6-.5.2-.2.4-.5.6-.5.7-.1,1.5-.2,2.2-.2h41.4c.6,0,1.3.4,1.9.5-.1.3-.1.5-.2.8Z"/>
      <path class="cls-4" d="m449.8,145.8c.6-.1,1.1-.4,1.7-.4,3.7-.1,7.3-.2,11-.2h30.3c.4,0,.9-.1,1.3,0,.4.1.7.5,1,.7-.3.2-.7.5-1,.5-1.8.1-3.5,0-5.3.1h-36.9c-.7,0-1.3-.1-2-.2-.1-.1-.1-.3-.1-.5Z"/>
      <path class="cls-4" d="m191.2,51c1,1.6,1.7,2.9,2.5,4,.3.4,1,.5,1.5.7.1-.7.5-1.5.3-2-.8-1.6-1.8-3.1-2.9-4.4-1.6-1.7-.9-3.3-.2-5.4,1.6,2.1,3.1,4,4.5,5.9.1.2.3.4.4.6.7,1.3,2.2,2.9,1.9,3.9-.6,1.9-2.1,3.5-3.4,5.1-.7.8-1.5.8-2.2-.2-1.5-2.1-2.5-5.3-2.4-8.2Z"/>
      <path class="cls-4" d="m289.5,44c1.2,2.2.8,3.8-.3,5.4-1.2,1.8-2.3,3.7-3.6,5.7.6.5,1.1.9,1.9,1.4,1.1-1.7,2.1-3.2,3.3-5.1,0,3.2-.9,5.7-2.5,8-.6.9-1.4.9-2.1.1-1.2-1.4-2.3-2.8-3.3-4.3-.3-.5-.4-1.7,0-2.2,2.1-3.1,4.3-5.9,6.6-9Z"/>
      <path class="cls-4" d="m206.8,23.3c-1.5,2.3-3,4.7-4.5,7-1.9,2.8-2.7,6-2.9,9.3-.1.9-.2,1.9-.6,2.6-.3.5-1.1.7-1.7,1.1-.3-.5-.8-.9-.8-1.4-.5-5.6,1.6-10.3,5.2-14.4,1.5-1.7,3.3-3.1,5-4.6.1.2.2.3.3.4Z"/>
      <path class="cls-4" d="m274.8,23.3c6.8,4.1,10.9,9.8,10.8,18,0,.7-.5,1.8-1,2-1.3.3-1.6-.8-1.8-1.8-.2-1.3-.3-2.7-.5-4-.8-4.7-3.5-8.4-6-12.2-.4-.7-1-1.3-1.5-2Z"/>
      <path class="cls-4" d="m215.9,17.6c-2.9,5.2-5.8,10.5-8.8,15.6-.3.6-1.2.9-1.7,1.3-.2-.7-.7-1.6-.5-2.2,1.8-6.2,5.1-11.4,11-14.7Z"/>
      <path class="cls-4" d="m266.5,17.9c2.7,1.1,4.4,2.9,5.9,4.9,1.6,2.2,2.9,4.7,4.2,7.1.4.8.6,1.7.7,2.6.1.4-.2,1.1-.5,1.2-.4.1-1-.1-1.5-.3-.2-.1-.4-.3-.5-.5-2.8-4.9-5.5-9.8-8.3-15Z"/>
      <path class="cls-4" d="m220.2,23.4c.1-1.9,1.2-2.9,3.2-2.4,1.6.4,3.2,1.4,4.9,1.4,2.4.1,4.8-.5,7.2-.8.6-.1,1.1-.3,1.8-.5-1.1,2.2-4.6,4.2-7.4,4.2-1.5,0-3-.4-4.5-.7-1.6-.2-3.3-.7-5.2-1.2Z"/>
      <path class="cls-4" d="m261.7,23.5c-2.2.6-4.1,1.1-6.1,1.7-4.1,1.1-7.4-.7-10.3-3.5,1.5.2,2.9.7,4.4.7,2.1,0,4.2-.2,6.3-.4,1.2-.1,2.3-.7,3.5-.8,1.9-.2,2.3.4,2.2,2.3Z"/>
      <path class="cls-4" d="m252.9,13.6c-1.7,1.3-3.3,2.5-4.9,3.8-1.9,1.6-3,1.7-4.6.1,1.8-1.6,3.5-3.1,5.3-4.7-.3-1.9-3.7-2.2-2.3-5.1,2.6,1.5,5,3.2,6.5,5.9Z"/>
      <path class="cls-4" d="m229.5,13.9c1.2-3.2,3.9-4.5,6.3-6.3.7,1.2.8,2.1-.3,3-.8.7-1.4,1.5-1.9,2.2,1.5,1.4,2.9,2.7,4.2,4,.4.4.4,1.1.6,1.7-.7,0-1.6.3-2.1-.1-2.3-1.4-4.4-2.9-6.8-4.5Z"/>
      <path class="cls-4" d="m238.5,16.1c-.5-.9-1.4-1.7-1.4-2.6,0-3.8.2-7.5.4-11.3,0-.6.4-1.1.7-2.2,1.3,2.9,2.9,5.2,1.9,8.3-.6,1.7-.5,3.7-.7,5.6-.1.7-.2,1.3-.3,2-.2.1-.4.2-.6.2Z"/>
      <path class="cls-4" d="m280,48.4c-4.4-.1-8.9-3.1-12.4-8.4,1.8-.4,3.1.1,4.9,1.5s3.7,2.7,5.6,3.9c1.6.9,2,1.3,1.9,3Z"/>
      <path class="cls-4" d="m214.2,39.9c-2.2,4.7-8,8.7-12.3,8.5,0-1.3.6-2.1,1.7-2.9,2.2-1.3,4.2-2.8,6.3-4.3,1.3-.9,2.6-1.6,4.3-1.3Z"/>
      <path class="cls-4" d="m243.1,16.1c-.1-1.5-.1-2.8-.2-4.1-.1-1.1-.1-2.2-.5-3.2-1.3-3.2.5-5.7,1.7-8.5,1.9,4.1,1.4,13.5-1,15.8Z"/>
      <path class="cls-4" d="m257.8,18.2c-3.6,2.8-7.7,3.5-12,2.2,2.6-2.5,9-3.7,12-2.2Z"/>
      <path class="cls-4" d="m236.7,20.3c-4.3,1.3-8.1.3-11.7-1.6,3-1.9,8.5-1.2,11.7,1.6Z"/>
      <path class="cls-4" d="m238.7,20.4c1.6-1.5,3.2-1.4,5.2,0h-5.2Z"/>
    </g>
    <g id="Layer_2-2" data-name="Layer 2">
      <text class="cls-8" transform="translate(139.94 202.08)"><tspan class="cls-6" x="0" y="0">STRONG, </tspan><tspan class="cls-1" x="135.89" y="0">M</tspan><tspan class="cls-6" x="159.63" y="0">AINE</tspan></text>
      <text class="cls-9" transform="translate(76 168.28)"><tspan class="cls-2" x="0" y="0">H</tspan><tspan class="cls-7" x="47.76" y="0">a</tspan><tspan class="cls-10" x="84.13" y="0">v</tspan><tspan class="cls-3" x="117.58" y="0">enc</tspan><tspan class="cls-5" x="227.68" y="0">r</tspan><tspan class="cls-2" x="251.72" y="0">est</tspan></text>
    </g>
  </g>
</svg>