<svg xmlns="http://www.w3.org/2000/svg" version="1.1" xmlns:xlink="http://www.w3.org/1999/xlink" xmlns:svgjs="http://svgjs.com/svgjs" width="1000" height="1000"><rect width="1000" height="1000" rx="200" ry="200" fill="#2c1d23"></rect><g transform="matrix(17.933198834342075,0,0,17.933198834342075,138.01566572596926,100.00574782701597)"><svg xmlns="http://www.w3.org/2000/svg" version="1.1" xmlns:xlink="http://www.w3.org/1999/xlink" xmlns:svgjs="http://svgjs.com/svgjs" width="40.36" height="44.61"><svg id="Layer_2" data-name="Layer 2" xmlns="http://www.w3.org/2000/svg" viewBox="0 0 40.36 44.61">
  <defs>
    <style>
      .cls-1 {
        fill: #c9a977;
      }
    </style>
  </defs>
  <g id="Layer_2-2" data-name="Layer 2">
    <g id="HavenCrestLogo">
      <path class="cls-1" d="m29.43,24.5H10.93c-.1.5-.3,1.1-.3,1.6v13c0,1.1.4,1.7,1.6,1.6.5-.1,1,0,1.5,0,3.4,0,3.6.3,2.8,3.8H.13v-3.8c1.3,0,2.5-.1,3.7,0,1.5.1,2-.5,2-2-.1-7.8,0-15.6,0-23.5V6.4c0-1.67-.87-2.5-2.6-2.5H.33c-.1-.3-.3-.4-.3-.6C-.17,1.1.79,0,2.93,0h11.4c1.67,0,2.47.87,2.4,2.6,0,.4-.1.7-.1,1.3h-5.8v15.9h12.6c1.9,0,4.5.5,5.6-.6,1-.9.4-3.6.4-5.4.1-2.4.1-4.8.1-7.1,0-.8-.1-1.7-.2-2.7h-5.7c-.1-.4-.2-.5-.2-.7-.3-3.1-.3-3.2,2.9-3.2h13c.2,0,.4.1.7.1v3.6h-5.5c-.1.8-.1,1.5-.1,2.1v32.8c0,1.5.4,2.1,2,2,1.2-.1,2.4,0,3.7,0,.1.7.1,1.2.2,1.6.2,1.7-.4,2.4-2.2,2.3-4.3-.1-8.6-.1-12.8,0-1.5,0-1.7-.7-1.7-1.9s0-2.1,1.7-2.1c2.93-.07,4.37-1.6,4.3-4.6-.2-3.7-.2-7.5-.2-11.5h0Z"></path>
    </g>
  </g>
</svg></svg></g></svg>